<?xml version="1.0" standalone="no"?>
<!DOCTYPE svg PUBLIC "-//W3C//DTD SVG 20010904//EN"
 "http://www.w3.org/TR/2001/REC-SVG-20010904/DTD/svg10.dtd">
<svg version="1.0" xmlns="http://www.w3.org/2000/svg"
 width="1024.000000pt" height="1024.000000pt" viewBox="0 0 1024.000000 1024.000000"
 preserveAspectRatio="xMidYMid meet">

<g transform="translate(0.000000,1024.000000) scale(0.100000,-0.100000)"
fill="#000000" stroke="none">
<path d="M5134 8546 c-52 -23 -100 -73 -125 -130 l-24 -55 -75 -3 -75 -3 62
-40 c34 -22 64 -49 67 -60 3 -11 6 -88 6 -171 0 -110 -3 -154 -12 -161 -7 -5
-47 -17 -90 -27 -94 -21 -270 -107 -358 -174 -79 -60 -182 -168 -231 -242 -80
-121 -148 -290 -164 -405 -12 -90 -3 -84 -128 -87 l-111 -3 -32 -65 -31 -65
63 -3 64 -3 0 -599 0 -600 -75 0 -75 0 0 -45 0 -45 75 0 75 0 0 -80 0 -80
-155 0 -155 0 0 200 0 200 -405 0 -405 0 0 -464 0 -463 -61 -7 c-99 -10 -177
-52 -231 -123 -46 -60 -35 -6 12 65 44 66 110 116 165 126 67 13 100 103 56
157 -17 21 -28 24 -91 24 -63 0 -74 3 -91 24 -21 25 -25 71 -9 102 15 26 62
49 105 49 76 0 115 43 115 126 0 74 -52 144 -121 164 -44 13 -134 13 -182 -1
-49 -13 -103 -61 -119 -105 -14 -41 -25 -43 -38 -8 -26 69 -3 139 60 179 94
59 101 184 15 270 -101 101 -252 80 -340 -48 l-39 -58 -20 27 c-23 32 -109 74
-151 74 -109 0 -205 -85 -205 -180 0 -50 26 -88 75 -111 79 -37 111 -110 81
-182 -8 -20 -19 -37 -23 -37 -4 1 -17 15 -28 33 -49 79 -211 108 -323 58 -90
-40 -162 -147 -162 -238 0 -20 4 -23 22 -17 39 12 113 8 145 -9 42 -22 63 -55
70 -108 l6 -41 -26 26 c-35 35 -62 33 -103 -8 -60 -60 -42 -147 33 -161 81
-15 151 -71 192 -152 30 -59 28 -86 -3 -44 -30 41 -77 77 -136 104 -66 31
-225 31 -292 0 -103 -47 -163 -123 -175 -222 l-6 -50 75 6 c62 5 81 2 106 -12
57 -34 67 -88 24 -136 -24 -27 -37 -33 -86 -37 l-58 -5 6 -35 c8 -55 51 -109
111 -143 l55 -31 0 -64 0 -63 -38 -7 c-52 -9 -84 -28 -120 -68 -29 -34 -49
-87 -38 -104 3 -5 28 -12 54 -14 70 -7 128 -49 166 -120 l31 -57 -37 -38 c-50
-52 -79 -120 -80 -191 -2 -192 184 -290 414 -217 l56 18 34 -28 c40 -34 145
-85 175 -85 55 0 53 14 53 -324 0 -336 -6 -389 -53 -468 -14 -25 -41 -53 -61
-63 l-36 -20 0 -72 0 -73 255 0 255 0 0 75 c0 70 -1 75 -24 81 -57 14 -108
103 -126 220 -6 40 -9 187 -8 354 l3 285 80 -1 c44 -1 107 -3 140 -4 79 -4
151 20 208 71 41 36 48 38 74 28 15 -6 67 -13 116 -16 l87 -6 -2 -275 -3 -275
-117 -70 -118 -69 0 -199 0 -199 450 0 449 0 3 73 3 72 38 3 37 3 0 945 0 944
-40 0 -40 0 0 75 0 75 -567 0 -568 1 -40 120 c-22 66 -41 127 -43 135 -3 12
88 14 675 14 l678 0 -124 82 -124 81 -163 -2 -164 -2 0 320 c0 199 4 340 11
373 24 114 83 186 166 203 75 15 152 -45 194 -151 21 -56 23 -76 27 -345 l4
-286 546 249 c301 137 653 298 782 358 129 59 267 122 306 140 l71 31 64 -29
c35 -16 244 -111 464 -212 697 -317 968 -441 1055 -483 89 -41 169 -77 175
-77 2 0 5 134 7 298 5 338 10 368 79 445 96 110 229 72 291 -82 22 -54 22 -67
23 -401 l0 -345 -188 -3 -189 -2 -121 -80 -122 -80 698 0 c383 0 697 -3 697
-7 0 -4 -19 -65 -42 -135 l-42 -128 -607 0 -607 0 -6 -22 c-3 -13 -6 -47 -6
-75 l0 -53 -35 0 -35 0 0 -947 0 -948 37 0 38 0 3 -72 3 -73 499 0 500 0 0
209 c0 190 -2 209 -17 215 -10 4 -64 34 -120 68 l-103 60 0 269 0 269 48 1
c26 0 70 6 97 13 49 12 51 11 91 -21 91 -73 146 -83 357 -68 l108 8 -3 -339
c-4 -289 -7 -347 -22 -392 -18 -55 -74 -127 -107 -137 -16 -6 -19 -16 -19 -81
l0 -74 250 0 250 0 0 73 0 72 -37 20 c-47 25 -88 97 -102 181 -6 34 -11 196
-11 366 l0 305 54 6 c62 6 126 36 178 83 36 32 38 33 67 18 17 -9 59 -20 94
-26 123 -20 247 31 294 121 50 95 20 237 -64 311 l-35 31 23 46 c13 25 42 60
64 79 36 32 115 64 157 64 21 0 23 19 4 63 -21 50 -77 94 -140 108 l-56 12 0
62 c0 62 0 62 38 79 76 35 132 101 132 157 0 39 0 39 -40 39 -103 0 -156 87
-96 157 23 27 28 28 116 28 l92 0 -6 49 c-12 101 -96 198 -199 228 -55 16
-182 15 -232 -1 -22 -7 -62 -27 -89 -43 -49 -30 -65 -27 -66 10 0 22 117 99
170 112 64 15 85 43 77 103 -4 30 -15 50 -37 70 -38 34 -60 34 -99 1 -28 -23
-31 -24 -31 -7 0 30 42 105 71 125 27 21 105 28 152 15 26 -7 27 -6 27 35 0
87 -72 189 -159 226 -47 19 -164 19 -218 0 -35 -13 -45 -13 -53 -2 -6 7 -31
21 -56 31 -24 10 -44 21 -44 24 0 12 70 69 84 69 8 0 26 14 40 31 46 54 33
142 -31 200 -44 42 -73 53 -138 53 -64 -1 -111 -19 -156 -61 l-27 -24 -20 33
c-52 83 -143 134 -223 125 -52 -6 -115 -35 -140 -63 -69 -78 -64 -213 9 -256
51 -30 75 -65 79 -115 5 -47 -9 -103 -25 -103 -4 0 -14 15 -20 34 -16 44 -70
92 -119 105 -59 17 -153 13 -198 -8 -81 -36 -122 -124 -96 -204 17 -52 44 -70
114 -78 49 -6 66 -13 84 -34 32 -37 31 -88 -3 -122 -24 -24 -31 -25 -90 -20
-60 4 -66 3 -84 -20 -20 -26 -27 -84 -14 -118 4 -10 37 -30 73 -47 36 -16 81
-44 100 -61 33 -32 95 -146 85 -156 -3 -3 -10 3 -16 14 -35 63 -143 129 -230
141 l-48 7 0 463 0 464 -405 0 -405 0 0 -198 0 -199 -146 -7 c-80 -3 -150 -4
-155 0 -5 3 -9 41 -9 85 l0 79 80 0 80 0 0 40 0 40 -80 0 -80 0 0 605 0 605
65 0 c36 0 65 2 65 4 0 2 -14 33 -30 68 l-30 64 -110 -4 c-125 -5 -120 -9
-135 92 -17 118 -89 293 -167 409 -150 222 -374 368 -660 431 l-28 6 0 178 0
178 65 39 65 40 -67 5 c-63 5 -67 6 -77 35 -20 57 -57 105 -99 129 -58 33 -77
37 -113 22z m-9 -426 l0 -85 -47 -3 -48 -3 0 91 0 91 48 -3 47 -3 0 -85z m175
-1 l0 -90 -47 3 -48 3 -3 74 c-2 41 -1 80 2 88 3 8 22 13 51 13 l45 0 0 -91z
m-1080 -1914 l0 -385 -60 0 -60 0 0 385 0 385 60 0 60 0 0 -385z m558 -2 l2
-383 -65 0 -65 0 0 378 c0 208 3 382 7 386 4 4 32 6 63 4 l55 -3 3 -382z m232
2 l0 -385 -60 0 -60 0 0 385 0 385 60 0 60 0 0 -385z m448 -3 l2 -383 -61 3
-62 3 2 370 c0 204 1 376 1 383 0 10 15 12 58 10 l57 -3 3 -383z m232 3 l0
-385 -60 0 -60 0 0 385 0 385 60 0 60 0 0 -385z m548 -2 l2 -383 -65 0 -65 0
0 378 c0 208 3 382 7 386 4 4 32 6 63 4 l55 -3 3 -382z m-2863 -2343 l0 -105
-140 0 -140 0 -3 94 c-1 52 0 101 2 108 4 11 35 13 143 11 l138 -3 0 -105z
m3853 3 l-3 -108 -137 -1 -138 0 0 108 0 108 140 0 141 0 -3 -107z m-3848
-328 l0 -105 -145 0 -145 0 0 105 0 105 145 0 145 0 0 -105z m3850 0 l0 -105
-140 0 -140 0 0 105 0 105 140 0 140 0 0 -105z"/>
<path d="M2271 8264 c-30 -8 -74 -23 -99 -34 l-46 -21 85 -87 c47 -48 186
-193 310 -322 123 -129 258 -271 300 -314 l76 -79 27 58 c151 319 -21 697
-363 799 -68 20 -216 20 -290 0z"/>
<path d="M7883 8185 c-227 -62 -383 -265 -383 -500 0 -79 21 -178 48 -231 l18
-35 349 351 c193 193 351 354 353 359 3 10 -81 47 -139 60 -62 15 -184 12
-246 -4z"/>
<path d="M6560 7867 c-98 -28 -184 -108 -221 -206 -17 -44 -20 -71 -17 -131 3
-41 11 -87 19 -101 l14 -26 220 218 220 218 -40 17 c-53 22 -139 27 -195 11z"/>
<path d="M2052 6890 l-63 -21 21 -27 c11 -15 125 -135 254 -267 l235 -240 23
50 c19 42 23 66 23 150 0 93 -2 105 -32 166 -39 79 -102 141 -180 176 -77 36
-194 41 -281 13z"/>
<path d="M6919 6092 c-100 -75 -191 -145 -202 -154 -21 -17 -3 -18 381 -18
221 0 402 2 402 5 0 3 -90 72 -200 155 l-200 150 -181 -138z"/>
<path d="M3024 6079 c-104 -77 -193 -145 -198 -150 -6 -5 151 -9 394 -9 355 0
402 2 390 15 -30 29 -375 285 -386 285 -5 0 -95 -63 -200 -141z"/>
<path d="M4935 5263 c-99 -46 -304 -141 -455 -210 -151 -68 -356 -161 -454
-206 l-180 -82 648 -3 c356 -1 935 -1 1287 0 l639 3 -93 42 c-50 23 -195 90
-322 149 -126 58 -268 123 -315 144 -47 20 -189 85 -317 144 -127 58 -237 106
-245 105 -7 0 -94 -39 -193 -86z"/>
<path d="M3900 4235 l0 -75 -40 0 -40 0 0 -949 0 -948 38 1 37 1 3 -73 3 -72
217 2 217 3 3 74 3 73 34 -4 35 -4 0 948 0 948 -35 0 -35 0 0 75 0 75 -220 0
-220 0 0 -75z"/>
<path d="M4765 4288 c-3 -13 -4 -45 -3 -73 l3 -50 -37 -3 -38 -3 0 -948 0
-948 38 1 37 1 -3 -72 -2 -73 359 0 360 0 3 72 c3 65 5 73 23 74 11 0 28 1 38
2 16 2 17 54 17 947 l0 945 -40 0 -40 0 0 75 0 75 -355 0 -355 0 -5 -22z"/>
<path d="M5910 4235 l0 -75 -40 0 -40 0 0 -951 0 -951 38 4 37 3 3 -73 3 -72
214 0 215 0 0 75 0 75 35 0 c28 0 36 5 40 23 3 12 4 436 3 942 l-3 920 -37 3
-38 3 0 75 0 74 -215 0 -215 0 0 -75z"/>
</g>
</svg>
